<svg xmlns="http://www.w3.org/2000/svg" width="17.679" height="20" viewBox="0 0 17.679 20"><g fill="none"><path d="M2.058 0h13.719a.837.837 0 0 1 .837.837l1.066 18.326a.837.837 0 0 1-.837.837H.837A.837.837 0 0 1 0 19.163L1.221.837A.837.837 0 0 1 2.058 0"/><path fill="#3B82F6" d="M3.148 2 2.082 18H15.61l-.93-16zm-1.09-2h13.72c.461 0 .836.375.836.837l1.066 18.326a.837.837 0 0 1-.837.837H.837A.837.837 0 0 1 0 19.163L1.221.837c0-.462.375-.837.837-.837"/></g><path fill="none" stroke="#3B82F6" stroke-width="2" d="M8.876 8.654 6.365 19.533"/><path fill="none" stroke="#3B82F6" stroke-width="2" d="m8.875 8.654 2.511 10.628"/><path fill="none" stroke="#3B82F6" stroke-width="2" d="M8.875 3.803v5.858"/><path fill="none" stroke="#3B82F6" stroke-width="2" d="M1.734 4.803H16.04"/><path fill="none" stroke="#fff" stroke-width="2" d="M7.119 3.962v1.423"/><path fill="none" stroke="#3B82F6" stroke-width="2" d="M10.799 3.962v1.423"/><path fill="none" stroke="#3B82F6" stroke-width="2" d="M5.593 5.143c-.508 4.626-3.838 4.154-3.838 4.154"/><path fill="none" stroke="#3B82F6" stroke-width="2" d="M12.157 5.179c.507 4.587 3.838 4.119 3.838 4.119"/></svg>
